# Blender v2.66 (sub 1) OBJ File: 'cube.blend'
# www.blender.org
mtllib cube.mtl
o Left_Plane.008
v 0.500000 -0.500000 0.500000
v 0.500000 0.500000 0.500000
v 0.500000 -0.500000 -0.500000
v 0.500000 0.500000 -0.500000
vn 1.000000 -0.000001 0.000000
usemtl Left
s off
f 2//1 1//1 3//1
f 4//1 2//1 3//1
o Right_Plane.007
v -0.500000 -0.500000 0.500000
v -0.500000 0.500000 0.500000
v -0.500000 -0.500000 -0.500000
v -0.500000 0.500000 -0.500000
usemtl None
s off
f 6//1 5//1 7//1
f 8//1 6//1 7//1
o Back_Plane.006
v 0.500000 0.500000 0.500000
v -0.500000 0.500000 0.500000
v 0.500000 -0.500000 0.500000
v -0.500000 -0.500000 0.500000
vn 0.000000 0.000000 -1.000000
usemtl None
s off
f 10//2 9//2 12//2
f 9//2 11//2 12//2
o Front_Plane.005
v 0.500000 0.500000 -0.500000
v -0.500000 0.500000 -0.500000
v 0.500000 -0.500000 -0.500000
v -0.500000 -0.500000 -0.500000
usemtl Front
s off
f 14//2 13//2 16//2
f 13//2 15//2 16//2
o Down_Plane.003
v 0.500000 -0.500000 0.500000
v -0.500000 -0.500000 0.500000
v 0.500000 -0.500000 -0.500000
v -0.500000 -0.500000 -0.500000
vn 0.000000 1.000000 -0.000000
usemtl None
s off
f 18//3 17//3 19//3
f 20//3 18//3 19//3
o Top_Plane.001
v 0.500000 0.500000 0.500000
v -0.500000 0.500000 0.500000
v 0.500000 0.500000 -0.500000
v -0.500000 0.500000 -0.500000
usemtl Top
s off
f 22//3 21//3 23//3
f 24//3 22//3 23//3
